<mxfile host="app.diagrams.net" agent="Mozilla/5.0 (Windows NT 10.0; Win64; x64) AppleWebKit/537.36 (KHTML, like Gecko) Chrome/134.0.0.0 Safari/537.36" version="26.1.1">
  <diagram name="Page-1" id="nJAUH2nR-29Tj1ZS2kcn">
    <mxGraphModel dx="5305" dy="1915" grid="1" gridSize="10" guides="1" tooltips="1" connect="1" arrows="1" fold="1" page="1" pageScale="1" pageWidth="1169" pageHeight="827" math="0" shadow="0">
      <root>
        <mxCell id="0" />
        <mxCell id="1" parent="0" />
        <mxCell id="Sh8WYW3R7UGOPEOma0MA-6" value="Vertical Tree Layout" style="swimlane;startSize=20;horizontal=1;childLayout=treeLayout;horizontalTree=0;sortEdges=1;resizable=1;containerType=tree;fontSize=12;movable=1;rotatable=1;deletable=1;editable=1;locked=0;connectable=1;" parent="1" vertex="1">
          <mxGeometry x="170" y="60" width="2240" height="460" as="geometry" />
        </mxCell>
        <mxCell id="Sh8WYW3R7UGOPEOma0MA-7" value="Root" style="whiteSpace=wrap;html=1;" parent="Sh8WYW3R7UGOPEOma0MA-6" vertex="1">
          <mxGeometry x="1070" y="40" width="100" height="40" as="geometry" />
        </mxCell>
        <mxCell id="Sh8WYW3R7UGOPEOma0MA-8" value="(" style="whiteSpace=wrap;html=1;" parent="Sh8WYW3R7UGOPEOma0MA-6" vertex="1">
          <mxGeometry x="510" y="130" width="100" height="40" as="geometry" />
        </mxCell>
        <mxCell id="Sh8WYW3R7UGOPEOma0MA-9" value="" style="edgeStyle=elbowEdgeStyle;elbow=vertical;html=1;rounded=1;curved=0;sourcePerimeterSpacing=0;targetPerimeterSpacing=0;startSize=6;endSize=6;" parent="Sh8WYW3R7UGOPEOma0MA-6" source="Sh8WYW3R7UGOPEOma0MA-7" target="Sh8WYW3R7UGOPEOma0MA-8" edge="1">
          <mxGeometry relative="1" as="geometry" />
        </mxCell>
        <mxCell id="Sh8WYW3R7UGOPEOma0MA-10" value=")" style="whiteSpace=wrap;html=1;" parent="Sh8WYW3R7UGOPEOma0MA-6" vertex="1">
          <mxGeometry x="1630" y="130" width="100" height="40" as="geometry" />
        </mxCell>
        <mxCell id="Sh8WYW3R7UGOPEOma0MA-11" value="" style="edgeStyle=elbowEdgeStyle;elbow=vertical;html=1;rounded=1;curved=0;sourcePerimeterSpacing=0;targetPerimeterSpacing=0;startSize=6;endSize=6;" parent="Sh8WYW3R7UGOPEOma0MA-6" source="Sh8WYW3R7UGOPEOma0MA-7" target="Sh8WYW3R7UGOPEOma0MA-10" edge="1">
          <mxGeometry relative="1" as="geometry" />
        </mxCell>
        <mxCell id="Sh8WYW3R7UGOPEOma0MA-16" value="" style="edgeStyle=elbowEdgeStyle;elbow=vertical;html=1;rounded=1;curved=0;sourcePerimeterSpacing=0;targetPerimeterSpacing=0;startSize=6;endSize=6;" parent="Sh8WYW3R7UGOPEOma0MA-6" source="Sh8WYW3R7UGOPEOma0MA-8" target="Sh8WYW3R7UGOPEOma0MA-17" edge="1">
          <mxGeometry relative="1" as="geometry">
            <mxPoint x="-127361.25" y="140" as="sourcePoint" />
          </mxGeometry>
        </mxCell>
        <mxCell id="Sh8WYW3R7UGOPEOma0MA-17" value="((" style="whiteSpace=wrap;html=1;" parent="Sh8WYW3R7UGOPEOma0MA-6" vertex="1">
          <mxGeometry x="230" y="220" width="100" height="40" as="geometry" />
        </mxCell>
        <mxCell id="Sh8WYW3R7UGOPEOma0MA-18" value="" style="edgeStyle=elbowEdgeStyle;elbow=vertical;html=1;rounded=1;curved=0;sourcePerimeterSpacing=0;targetPerimeterSpacing=0;startSize=6;endSize=6;" parent="Sh8WYW3R7UGOPEOma0MA-6" source="Sh8WYW3R7UGOPEOma0MA-8" target="Sh8WYW3R7UGOPEOma0MA-19" edge="1">
          <mxGeometry relative="1" as="geometry">
            <mxPoint x="-127431.25" y="230" as="sourcePoint" />
          </mxGeometry>
        </mxCell>
        <mxCell id="Sh8WYW3R7UGOPEOma0MA-19" value="()" style="whiteSpace=wrap;html=1;fillColor=#d5e8d4;strokeColor=#82b366;" parent="Sh8WYW3R7UGOPEOma0MA-6" vertex="1">
          <mxGeometry x="790" y="220" width="100" height="40" as="geometry" />
        </mxCell>
        <mxCell id="Sh8WYW3R7UGOPEOma0MA-20" value="" style="edgeStyle=elbowEdgeStyle;elbow=vertical;html=1;rounded=1;curved=0;sourcePerimeterSpacing=0;targetPerimeterSpacing=0;startSize=6;endSize=6;" parent="Sh8WYW3R7UGOPEOma0MA-6" source="Sh8WYW3R7UGOPEOma0MA-10" target="Sh8WYW3R7UGOPEOma0MA-21" edge="1">
          <mxGeometry relative="1" as="geometry">
            <mxPoint x="-127193.25" y="140" as="sourcePoint" />
          </mxGeometry>
        </mxCell>
        <mxCell id="Sh8WYW3R7UGOPEOma0MA-21" value=")(" style="whiteSpace=wrap;html=1;" parent="Sh8WYW3R7UGOPEOma0MA-6" vertex="1">
          <mxGeometry x="1350" y="220" width="100" height="40" as="geometry" />
        </mxCell>
        <mxCell id="Sh8WYW3R7UGOPEOma0MA-22" value="" style="edgeStyle=elbowEdgeStyle;elbow=vertical;html=1;rounded=1;curved=0;sourcePerimeterSpacing=0;targetPerimeterSpacing=0;startSize=6;endSize=6;" parent="Sh8WYW3R7UGOPEOma0MA-6" source="Sh8WYW3R7UGOPEOma0MA-10" target="Sh8WYW3R7UGOPEOma0MA-23" edge="1">
          <mxGeometry relative="1" as="geometry">
            <mxPoint x="-127088.25" y="230" as="sourcePoint" />
          </mxGeometry>
        </mxCell>
        <mxCell id="Sh8WYW3R7UGOPEOma0MA-23" value="))" style="whiteSpace=wrap;html=1;" parent="Sh8WYW3R7UGOPEOma0MA-6" vertex="1">
          <mxGeometry x="1910" y="220" width="100" height="40" as="geometry" />
        </mxCell>
        <mxCell id="Sh8WYW3R7UGOPEOma0MA-24" value="" style="edgeStyle=elbowEdgeStyle;elbow=vertical;html=1;rounded=1;curved=0;sourcePerimeterSpacing=0;targetPerimeterSpacing=0;startSize=6;endSize=6;" parent="Sh8WYW3R7UGOPEOma0MA-6" source="Sh8WYW3R7UGOPEOma0MA-17" target="Sh8WYW3R7UGOPEOma0MA-25" edge="1">
          <mxGeometry relative="1" as="geometry">
            <mxPoint x="-127123.25" y="230" as="sourcePoint" />
          </mxGeometry>
        </mxCell>
        <mxCell id="Sh8WYW3R7UGOPEOma0MA-25" value="(((" style="whiteSpace=wrap;html=1;" parent="Sh8WYW3R7UGOPEOma0MA-6" vertex="1">
          <mxGeometry x="90" y="310" width="100" height="40" as="geometry" />
        </mxCell>
        <mxCell id="Sh8WYW3R7UGOPEOma0MA-26" value="" style="edgeStyle=elbowEdgeStyle;elbow=vertical;html=1;rounded=1;curved=0;sourcePerimeterSpacing=0;targetPerimeterSpacing=0;startSize=6;endSize=6;" parent="Sh8WYW3R7UGOPEOma0MA-6" source="Sh8WYW3R7UGOPEOma0MA-17" target="Sh8WYW3R7UGOPEOma0MA-27" edge="1">
          <mxGeometry relative="1" as="geometry">
            <mxPoint x="-127193.25" y="320" as="sourcePoint" />
          </mxGeometry>
        </mxCell>
        <mxCell id="Sh8WYW3R7UGOPEOma0MA-27" value="(()" style="whiteSpace=wrap;html=1;" parent="Sh8WYW3R7UGOPEOma0MA-6" vertex="1">
          <mxGeometry x="370" y="310" width="100" height="40" as="geometry" />
        </mxCell>
        <mxCell id="Sh8WYW3R7UGOPEOma0MA-28" value="" style="edgeStyle=elbowEdgeStyle;elbow=vertical;html=1;rounded=1;curved=0;sourcePerimeterSpacing=0;targetPerimeterSpacing=0;startSize=6;endSize=6;" parent="Sh8WYW3R7UGOPEOma0MA-6" source="Sh8WYW3R7UGOPEOma0MA-19" target="Sh8WYW3R7UGOPEOma0MA-29" edge="1">
          <mxGeometry relative="1" as="geometry">
            <mxPoint x="-126815.25" y="230" as="sourcePoint" />
          </mxGeometry>
        </mxCell>
        <mxCell id="Sh8WYW3R7UGOPEOma0MA-29" value="()(" style="whiteSpace=wrap;html=1;" parent="Sh8WYW3R7UGOPEOma0MA-6" vertex="1">
          <mxGeometry x="650" y="310" width="100" height="40" as="geometry" />
        </mxCell>
        <mxCell id="Sh8WYW3R7UGOPEOma0MA-30" value="" style="edgeStyle=elbowEdgeStyle;elbow=vertical;html=1;rounded=1;curved=0;sourcePerimeterSpacing=0;targetPerimeterSpacing=0;startSize=6;endSize=6;" parent="Sh8WYW3R7UGOPEOma0MA-6" source="Sh8WYW3R7UGOPEOma0MA-19" target="Sh8WYW3R7UGOPEOma0MA-31" edge="1">
          <mxGeometry relative="1" as="geometry">
            <mxPoint x="-126713.75" y="320" as="sourcePoint" />
          </mxGeometry>
        </mxCell>
        <mxCell id="Sh8WYW3R7UGOPEOma0MA-31" value="())" style="whiteSpace=wrap;html=1;" parent="Sh8WYW3R7UGOPEOma0MA-6" vertex="1">
          <mxGeometry x="930" y="310" width="100" height="40" as="geometry" />
        </mxCell>
        <mxCell id="Sh8WYW3R7UGOPEOma0MA-32" value="" style="edgeStyle=elbowEdgeStyle;elbow=vertical;html=1;rounded=1;curved=0;sourcePerimeterSpacing=0;targetPerimeterSpacing=0;startSize=6;endSize=6;" parent="Sh8WYW3R7UGOPEOma0MA-6" source="Sh8WYW3R7UGOPEOma0MA-21" target="Sh8WYW3R7UGOPEOma0MA-33" edge="1">
          <mxGeometry relative="1" as="geometry">
            <mxPoint x="-126045.25" y="230" as="sourcePoint" />
          </mxGeometry>
        </mxCell>
        <mxCell id="Sh8WYW3R7UGOPEOma0MA-33" value=")((" style="whiteSpace=wrap;html=1;" parent="Sh8WYW3R7UGOPEOma0MA-6" vertex="1">
          <mxGeometry x="1210" y="310" width="100" height="40" as="geometry" />
        </mxCell>
        <mxCell id="Sh8WYW3R7UGOPEOma0MA-34" value="" style="edgeStyle=elbowEdgeStyle;elbow=vertical;html=1;rounded=1;curved=0;sourcePerimeterSpacing=0;targetPerimeterSpacing=0;startSize=6;endSize=6;" parent="Sh8WYW3R7UGOPEOma0MA-6" source="Sh8WYW3R7UGOPEOma0MA-21" target="Sh8WYW3R7UGOPEOma0MA-35" edge="1">
          <mxGeometry relative="1" as="geometry">
            <mxPoint x="-126108.25" y="320" as="sourcePoint" />
          </mxGeometry>
        </mxCell>
        <mxCell id="Sh8WYW3R7UGOPEOma0MA-35" value=")()" style="whiteSpace=wrap;html=1;" parent="Sh8WYW3R7UGOPEOma0MA-6" vertex="1">
          <mxGeometry x="1490" y="310" width="100" height="40" as="geometry" />
        </mxCell>
        <mxCell id="Sh8WYW3R7UGOPEOma0MA-36" value="" style="edgeStyle=elbowEdgeStyle;elbow=vertical;html=1;rounded=1;curved=0;sourcePerimeterSpacing=0;targetPerimeterSpacing=0;startSize=6;endSize=6;" parent="Sh8WYW3R7UGOPEOma0MA-6" source="Sh8WYW3R7UGOPEOma0MA-23" target="Sh8WYW3R7UGOPEOma0MA-37" edge="1">
          <mxGeometry relative="1" as="geometry">
            <mxPoint x="-125520.25" y="230" as="sourcePoint" />
          </mxGeometry>
        </mxCell>
        <mxCell id="Sh8WYW3R7UGOPEOma0MA-37" value="))(" style="whiteSpace=wrap;html=1;" parent="Sh8WYW3R7UGOPEOma0MA-6" vertex="1">
          <mxGeometry x="1770" y="310" width="100" height="40" as="geometry" />
        </mxCell>
        <mxCell id="Sh8WYW3R7UGOPEOma0MA-38" value="" style="edgeStyle=elbowEdgeStyle;elbow=vertical;html=1;rounded=1;curved=0;sourcePerimeterSpacing=0;targetPerimeterSpacing=0;startSize=6;endSize=6;" parent="Sh8WYW3R7UGOPEOma0MA-6" source="Sh8WYW3R7UGOPEOma0MA-23" target="Sh8WYW3R7UGOPEOma0MA-39" edge="1">
          <mxGeometry relative="1" as="geometry">
            <mxPoint x="-125411.75" y="320" as="sourcePoint" />
          </mxGeometry>
        </mxCell>
        <mxCell id="Sh8WYW3R7UGOPEOma0MA-39" value=")))" style="whiteSpace=wrap;html=1;" parent="Sh8WYW3R7UGOPEOma0MA-6" vertex="1">
          <mxGeometry x="2050" y="310" width="100" height="40" as="geometry" />
        </mxCell>
        <mxCell id="Sh8WYW3R7UGOPEOma0MA-40" value="" style="edgeStyle=elbowEdgeStyle;elbow=vertical;html=1;rounded=1;curved=0;sourcePerimeterSpacing=0;targetPerimeterSpacing=0;startSize=6;endSize=6;" parent="Sh8WYW3R7UGOPEOma0MA-6" source="Sh8WYW3R7UGOPEOma0MA-25" target="Sh8WYW3R7UGOPEOma0MA-41" edge="1">
          <mxGeometry relative="1" as="geometry">
            <mxPoint x="-126199.25" y="320" as="sourcePoint" />
          </mxGeometry>
        </mxCell>
        <mxCell id="Sh8WYW3R7UGOPEOma0MA-41" value="((((" style="whiteSpace=wrap;html=1;" parent="Sh8WYW3R7UGOPEOma0MA-6" vertex="1">
          <mxGeometry x="20" y="400" width="100" height="40" as="geometry" />
        </mxCell>
        <mxCell id="Sh8WYW3R7UGOPEOma0MA-42" value="" style="edgeStyle=elbowEdgeStyle;elbow=vertical;html=1;rounded=1;curved=0;sourcePerimeterSpacing=0;targetPerimeterSpacing=0;startSize=6;endSize=6;" parent="Sh8WYW3R7UGOPEOma0MA-6" source="Sh8WYW3R7UGOPEOma0MA-25" target="Sh8WYW3R7UGOPEOma0MA-43" edge="1">
          <mxGeometry relative="1" as="geometry">
            <mxPoint x="-126269.25" y="410" as="sourcePoint" />
          </mxGeometry>
        </mxCell>
        <mxCell id="Sh8WYW3R7UGOPEOma0MA-43" value="((()" style="whiteSpace=wrap;html=1;" parent="Sh8WYW3R7UGOPEOma0MA-6" vertex="1">
          <mxGeometry x="160" y="400" width="100" height="40" as="geometry" />
        </mxCell>
        <mxCell id="Sh8WYW3R7UGOPEOma0MA-44" value="" style="edgeStyle=elbowEdgeStyle;elbow=vertical;html=1;rounded=1;curved=0;sourcePerimeterSpacing=0;targetPerimeterSpacing=0;startSize=6;endSize=6;" parent="Sh8WYW3R7UGOPEOma0MA-6" source="Sh8WYW3R7UGOPEOma0MA-27" target="Sh8WYW3R7UGOPEOma0MA-45" edge="1">
          <mxGeometry relative="1" as="geometry">
            <mxPoint x="-125611.25" y="320" as="sourcePoint" />
          </mxGeometry>
        </mxCell>
        <mxCell id="Sh8WYW3R7UGOPEOma0MA-45" value="(()(" style="whiteSpace=wrap;html=1;" parent="Sh8WYW3R7UGOPEOma0MA-6" vertex="1">
          <mxGeometry x="300" y="400" width="100" height="40" as="geometry" />
        </mxCell>
        <mxCell id="Sh8WYW3R7UGOPEOma0MA-46" value="" style="edgeStyle=elbowEdgeStyle;elbow=vertical;html=1;rounded=1;curved=0;sourcePerimeterSpacing=0;targetPerimeterSpacing=0;startSize=6;endSize=6;" parent="Sh8WYW3R7UGOPEOma0MA-6" source="Sh8WYW3R7UGOPEOma0MA-27" target="Sh8WYW3R7UGOPEOma0MA-47" edge="1">
          <mxGeometry relative="1" as="geometry">
            <mxPoint x="-125511.5" y="410" as="sourcePoint" />
          </mxGeometry>
        </mxCell>
        <mxCell id="Sh8WYW3R7UGOPEOma0MA-47" value="(())" style="whiteSpace=wrap;html=1;fillColor=#d5e8d4;strokeColor=#82b366;" parent="Sh8WYW3R7UGOPEOma0MA-6" vertex="1">
          <mxGeometry x="440" y="400" width="100" height="40" as="geometry" />
        </mxCell>
        <mxCell id="Sh8WYW3R7UGOPEOma0MA-48" value="" style="edgeStyle=elbowEdgeStyle;elbow=vertical;html=1;rounded=1;curved=0;sourcePerimeterSpacing=0;targetPerimeterSpacing=0;startSize=6;endSize=6;" parent="Sh8WYW3R7UGOPEOma0MA-6" source="Sh8WYW3R7UGOPEOma0MA-29" target="Sh8WYW3R7UGOPEOma0MA-49" edge="1">
          <mxGeometry relative="1" as="geometry">
            <mxPoint x="-124554.25" y="320" as="sourcePoint" />
          </mxGeometry>
        </mxCell>
        <mxCell id="Sh8WYW3R7UGOPEOma0MA-49" value="()((" style="whiteSpace=wrap;html=1;" parent="Sh8WYW3R7UGOPEOma0MA-6" vertex="1">
          <mxGeometry x="580" y="400" width="100" height="40" as="geometry" />
        </mxCell>
        <mxCell id="Sh8WYW3R7UGOPEOma0MA-50" value="" style="edgeStyle=elbowEdgeStyle;elbow=vertical;html=1;rounded=1;curved=0;sourcePerimeterSpacing=0;targetPerimeterSpacing=0;startSize=6;endSize=6;" parent="Sh8WYW3R7UGOPEOma0MA-6" source="Sh8WYW3R7UGOPEOma0MA-29" target="Sh8WYW3R7UGOPEOma0MA-51" edge="1">
          <mxGeometry relative="1" as="geometry">
            <mxPoint x="-124620.75" y="410" as="sourcePoint" />
          </mxGeometry>
        </mxCell>
        <mxCell id="Sh8WYW3R7UGOPEOma0MA-51" value="()()" style="whiteSpace=wrap;html=1;fillColor=#d5e8d4;strokeColor=#82b366;" parent="Sh8WYW3R7UGOPEOma0MA-6" vertex="1">
          <mxGeometry x="720" y="400" width="100" height="40" as="geometry" />
        </mxCell>
        <mxCell id="Sh8WYW3R7UGOPEOma0MA-52" value="" style="edgeStyle=elbowEdgeStyle;elbow=vertical;html=1;rounded=1;curved=0;sourcePerimeterSpacing=0;targetPerimeterSpacing=0;startSize=6;endSize=6;" parent="Sh8WYW3R7UGOPEOma0MA-6" source="Sh8WYW3R7UGOPEOma0MA-31" target="Sh8WYW3R7UGOPEOma0MA-53" edge="1">
          <mxGeometry relative="1" as="geometry">
            <mxPoint x="-123717.75" y="320" as="sourcePoint" />
          </mxGeometry>
        </mxCell>
        <mxCell id="Sh8WYW3R7UGOPEOma0MA-53" value="())(" style="whiteSpace=wrap;html=1;" parent="Sh8WYW3R7UGOPEOma0MA-6" vertex="1">
          <mxGeometry x="860" y="400" width="100" height="40" as="geometry" />
        </mxCell>
        <mxCell id="Sh8WYW3R7UGOPEOma0MA-54" value="" style="edgeStyle=elbowEdgeStyle;elbow=vertical;html=1;rounded=1;curved=0;sourcePerimeterSpacing=0;targetPerimeterSpacing=0;startSize=6;endSize=6;" parent="Sh8WYW3R7UGOPEOma0MA-6" source="Sh8WYW3R7UGOPEOma0MA-31" target="Sh8WYW3R7UGOPEOma0MA-55" edge="1">
          <mxGeometry relative="1" as="geometry">
            <mxPoint x="-123614.5" y="410" as="sourcePoint" />
          </mxGeometry>
        </mxCell>
        <mxCell id="Sh8WYW3R7UGOPEOma0MA-55" value="()))" style="whiteSpace=wrap;html=1;" parent="Sh8WYW3R7UGOPEOma0MA-6" vertex="1">
          <mxGeometry x="1000" y="400" width="100" height="40" as="geometry" />
        </mxCell>
        <mxCell id="Sh8WYW3R7UGOPEOma0MA-56" value="" style="edgeStyle=elbowEdgeStyle;elbow=vertical;html=1;rounded=1;curved=0;sourcePerimeterSpacing=0;targetPerimeterSpacing=0;startSize=6;endSize=6;" parent="Sh8WYW3R7UGOPEOma0MA-6" source="Sh8WYW3R7UGOPEOma0MA-33" target="Sh8WYW3R7UGOPEOma0MA-57" edge="1">
          <mxGeometry relative="1" as="geometry">
            <mxPoint x="-122447.25" y="320" as="sourcePoint" />
          </mxGeometry>
        </mxCell>
        <mxCell id="Sh8WYW3R7UGOPEOma0MA-57" value=")(((" style="whiteSpace=wrap;html=1;" parent="Sh8WYW3R7UGOPEOma0MA-6" vertex="1">
          <mxGeometry x="1140" y="400" width="100" height="40" as="geometry" />
        </mxCell>
        <mxCell id="Sh8WYW3R7UGOPEOma0MA-58" value="" style="edgeStyle=elbowEdgeStyle;elbow=vertical;html=1;rounded=1;curved=0;sourcePerimeterSpacing=0;targetPerimeterSpacing=0;startSize=6;endSize=6;" parent="Sh8WYW3R7UGOPEOma0MA-6" source="Sh8WYW3R7UGOPEOma0MA-33" target="Sh8WYW3R7UGOPEOma0MA-59" edge="1">
          <mxGeometry relative="1" as="geometry">
            <mxPoint x="-122510.25" y="410" as="sourcePoint" />
          </mxGeometry>
        </mxCell>
        <mxCell id="Sh8WYW3R7UGOPEOma0MA-59" value=")(()" style="whiteSpace=wrap;html=1;" parent="Sh8WYW3R7UGOPEOma0MA-6" vertex="1">
          <mxGeometry x="1280" y="400" width="100" height="40" as="geometry" />
        </mxCell>
        <mxCell id="Sh8WYW3R7UGOPEOma0MA-60" value="" style="edgeStyle=elbowEdgeStyle;elbow=vertical;html=1;rounded=1;curved=0;sourcePerimeterSpacing=0;targetPerimeterSpacing=0;startSize=6;endSize=6;" parent="Sh8WYW3R7UGOPEOma0MA-6" source="Sh8WYW3R7UGOPEOma0MA-35" target="Sh8WYW3R7UGOPEOma0MA-61" edge="1">
          <mxGeometry relative="1" as="geometry">
            <mxPoint x="-121432.25" y="320" as="sourcePoint" />
          </mxGeometry>
        </mxCell>
        <mxCell id="Sh8WYW3R7UGOPEOma0MA-61" value=")()(" style="whiteSpace=wrap;html=1;" parent="Sh8WYW3R7UGOPEOma0MA-6" vertex="1">
          <mxGeometry x="1420" y="400" width="100" height="40" as="geometry" />
        </mxCell>
        <mxCell id="Sh8WYW3R7UGOPEOma0MA-62" value="" style="edgeStyle=elbowEdgeStyle;elbow=vertical;html=1;rounded=1;curved=0;sourcePerimeterSpacing=0;targetPerimeterSpacing=0;startSize=6;endSize=6;" parent="Sh8WYW3R7UGOPEOma0MA-6" source="Sh8WYW3R7UGOPEOma0MA-35" target="Sh8WYW3R7UGOPEOma0MA-63" edge="1">
          <mxGeometry relative="1" as="geometry">
            <mxPoint x="-121325.5" y="410" as="sourcePoint" />
          </mxGeometry>
        </mxCell>
        <mxCell id="Sh8WYW3R7UGOPEOma0MA-63" value=")())" style="whiteSpace=wrap;html=1;" parent="Sh8WYW3R7UGOPEOma0MA-6" vertex="1">
          <mxGeometry x="1560" y="400" width="100" height="40" as="geometry" />
        </mxCell>
        <mxCell id="Sh8WYW3R7UGOPEOma0MA-64" value="" style="edgeStyle=elbowEdgeStyle;elbow=vertical;html=1;rounded=1;curved=0;sourcePerimeterSpacing=0;targetPerimeterSpacing=0;startSize=6;endSize=6;" parent="Sh8WYW3R7UGOPEOma0MA-6" source="Sh8WYW3R7UGOPEOma0MA-37" target="Sh8WYW3R7UGOPEOma0MA-65" edge="1">
          <mxGeometry relative="1" as="geometry">
            <mxPoint x="-120018.25" y="320" as="sourcePoint" />
          </mxGeometry>
        </mxCell>
        <mxCell id="Sh8WYW3R7UGOPEOma0MA-65" value="))((" style="whiteSpace=wrap;html=1;" parent="Sh8WYW3R7UGOPEOma0MA-6" vertex="1">
          <mxGeometry x="1700" y="400" width="100" height="40" as="geometry" />
        </mxCell>
        <mxCell id="Sh8WYW3R7UGOPEOma0MA-66" value="" style="edgeStyle=elbowEdgeStyle;elbow=vertical;html=1;rounded=1;curved=0;sourcePerimeterSpacing=0;targetPerimeterSpacing=0;startSize=6;endSize=6;" parent="Sh8WYW3R7UGOPEOma0MA-6" source="Sh8WYW3R7UGOPEOma0MA-37" target="Sh8WYW3R7UGOPEOma0MA-67" edge="1">
          <mxGeometry relative="1" as="geometry">
            <mxPoint x="-120077.75" y="410" as="sourcePoint" />
          </mxGeometry>
        </mxCell>
        <mxCell id="Sh8WYW3R7UGOPEOma0MA-67" value="))()" style="whiteSpace=wrap;html=1;" parent="Sh8WYW3R7UGOPEOma0MA-6" vertex="1">
          <mxGeometry x="1840" y="400" width="100" height="40" as="geometry" />
        </mxCell>
        <mxCell id="Sh8WYW3R7UGOPEOma0MA-68" value="" style="edgeStyle=elbowEdgeStyle;elbow=vertical;html=1;rounded=1;curved=0;sourcePerimeterSpacing=0;targetPerimeterSpacing=0;startSize=6;endSize=6;" parent="Sh8WYW3R7UGOPEOma0MA-6" source="Sh8WYW3R7UGOPEOma0MA-39" target="Sh8WYW3R7UGOPEOma0MA-69" edge="1">
          <mxGeometry relative="1" as="geometry">
            <mxPoint x="-118894.75" y="320" as="sourcePoint" />
          </mxGeometry>
        </mxCell>
        <mxCell id="Sh8WYW3R7UGOPEOma0MA-69" value=")))(" style="whiteSpace=wrap;html=1;" parent="Sh8WYW3R7UGOPEOma0MA-6" vertex="1">
          <mxGeometry x="1980" y="400" width="100" height="40" as="geometry" />
        </mxCell>
        <mxCell id="Sh8WYW3R7UGOPEOma0MA-70" value="" style="edgeStyle=elbowEdgeStyle;elbow=vertical;html=1;rounded=1;curved=0;sourcePerimeterSpacing=0;targetPerimeterSpacing=0;startSize=6;endSize=6;" parent="Sh8WYW3R7UGOPEOma0MA-6" source="Sh8WYW3R7UGOPEOma0MA-39" target="Sh8WYW3R7UGOPEOma0MA-71" edge="1">
          <mxGeometry relative="1" as="geometry">
            <mxPoint x="-118784.5" y="410" as="sourcePoint" />
          </mxGeometry>
        </mxCell>
        <mxCell id="Sh8WYW3R7UGOPEOma0MA-71" value="))))" style="whiteSpace=wrap;html=1;" parent="Sh8WYW3R7UGOPEOma0MA-6" vertex="1">
          <mxGeometry x="2120" y="400" width="100" height="40" as="geometry" />
        </mxCell>
      </root>
    </mxGraphModel>
  </diagram>
</mxfile>
